# xmcd
#
# Track frame offsets:
# 150
# 14777
# 25866
# 37883
# 54963
# 73999
# 88263
# 111862
# 141839
#
# Disc length: 2146 seconds
#
#
# Revision: 0
# Processed by: cddbd v1.5.2PL0 Copyright (c) Steve Scherf et al.
# Submitted via: FreeRIP 2.943 
#
DISCID=7c086009
DTITLE=Worst Case Scenario - the Order of the Morning Star
DYEAR=2006
DGENRE=Goa
TTITLE0=Alive
TTITLE1=untitled
TTITLE2=As the Burning Angels Scream
TTITLE3=80 Lies to Live By
TTITLE4=In All of Beauties Darkness
TTITLE5=Defying the Appathetic Virtues of a Self Consumed god
TTITLE6=Suffer the Martyr
TTITLE7=the Art of Understanding Me
TTITLE8=the Order of the Morning Star
EXTD=spread by z
EXTT0=
EXTT1=
EXTT2=
EXTT3=
EXTT4=
EXTT5=
EXTT6=
EXTT7=
EXTT8=
PLAYORDER=
